<svg viewBox="0 0 1920 325" fill="none" xmlns="http://www.w3.org/2000/svg" xmlns:xlink="http://www.w3.org/1999/xlink">
	<desc>
			Created with Pixso.
	</desc>
	<defs/>
	<path id="LENNI" d="M485.38 317.07L485.38 0L0 0L0 325L647.34 325L647.34 317.07L485.38 317.07ZM675.45 325L876.19 325L876.19 317.07L713.44 317.07L713.44 159.93L840.2 159.93L840.2 152L713.44 152L713.44 7.92L876 7.92L876 0L675.45 0L675.45 325ZM941.89 8.39L941.89 325L903.9 325L903.9 0L941.89 0C958.29 0 998.68 3.73 1034.27 35.43C1063.06 60.61 1081.86 95.58 1091.44 143.61L1091.44 0L1129.43 0L1129.43 325L1091.44 325L1091.44 203.3C1083.46 22.38 976.28 8.39 941.89 8.39ZM1207.44 325L1207.44 8.39C1241.84 8.39 1349.01 22.38 1357.01 203.3L1357.01 325L1395 325L1395 0L1357.01 0L1357.01 143.61C1347.41 95.58 1328.61 60.61 1299.81 35.43C1264.23 3.73 1223.84 0 1207.44 0L1169.46 0L1169.46 325L1207.44 325ZM1435.01 0L1920 0L1920 325L1435.01 325L1435.01 0Z" fill="currentColor" fill-opacity="1.000000" fill-rule="evenodd"/>
</svg>
