<svg xmlns="http://www.w3.org/2000/svg" xmlns:xlink="http://www.w3.org/1999/xlink"><symbol id="arrow"><g fill="none">
    <path d="M40 52.213a29.836 29.836 0 0 0 15.297 8.21 29.76 29.76 0 0 0 17.26-1.707 29.902 29.902 0 0 0 13.408-11.049A30.089 30.089 0 0 0 91 31a30.089 30.089 0 0 0-5.035-16.667 29.902 29.902 0 0 0-13.407-11.05 29.76 29.76 0 0 0-17.262-1.707A29.837 29.837 0 0 0 40 9.786" stroke="#1F1E1E" stroke-width="2" stroke-linecap="round"/>
    <path d="M5 31h60M58 24l7 7-7 7" stroke="#1F1E1E" stroke-width="2" stroke-linecap="round" stroke-linejoin="round"/>
</g></symbol><symbol id="contact"><g fill="none">
    <path d="M22 16.92v3a2 2 0 0 1-2.18 2 19.79 19.79 0 0 1-8.63-3.07 19.5 19.5 0 0 1-6-6 19.79 19.79 0 0 1-3.07-8.67A2 2 0 0 1 4.11 2h3a2 2 0 0 1 2 1.72c.127.96.361 1.903.7 2.81a2 2 0 0 1-.45 2.11L8.09 9.91a16 16 0 0 0 6 6l1.27-1.27a2 2 0 0 1 2.11-.45c.907.339 1.85.574 2.81.7A2 2 0 0 1 22 16.92Z" fill="#BC3324"/>
</g></symbol><symbol id="dignity" viewBox="0 0 302.082 35.245"><g fill="none">
    <path d="M279.71 8.42V5.74h2.19V0h2.82v5.74h2.13v2.72h-2.13v9.52c0 1.57.65 2.44 1.93 2.62.24.04.48.07.73.07h.46l.63 2.82h-1.19c-2.72-.02-4.39-1.04-5.01-3.06-.22-.75-.33-1.68-.33-2.78l-.04-9.23h-2.19Zm-57.63 15.07V.26h2.88v23.23h-2.88Zm4.54 0v-2.86c2.26 0 3.77-.35 4.55-1.06.66-.62.99-1.49.99-2.62V6.8q0-1.19-.55-2-.81-1.17-2.8-1.52-.93-.17-2.19-.17V.26q4.99 0 7.07 2.46.38.45.66.99c.49.89.73 1.91.73 3.09v10.15c0 4.16-2.53 6.34-7.59 6.54h-.87Zm11.29-20.41c0-.69.32-1.17.96-1.46q.33-.13.66-.13c.66 0 1.15.31 1.46.93q.13.33.13.66c0 .66-.31 1.15-.93 1.46-.22.09-.44.13-.66.13-.68 0-1.18-.31-1.49-.93-.09-.22-.13-.44-.13-.66Zm36.49 0c0-.69.33-1.17.97-1.46.22-.09.44-.13.66-.13.66 0 1.15.31 1.46.93.09.22.13.44.13.66 0 .66-.31 1.15-.93 1.46-.22.09-.44.13-.66.13-.69 0-1.18-.31-1.49-.93a1.74 1.74 0 0 1-.14-.66Zm-30.92 26.55.7-2.59h6.23c1.24-.05 2.15-.53 2.73-1.46.17-.31.26-.59.26-.83v-2.39c-.91.64-1.81.98-2.72 1.03v-2.56c.97 0 1.75-.41 2.32-1.22.27-.38.4-.76.4-1.13v-8.13c0-.84-.46-1.51-1.39-1.99-.45-.22-.89-.34-1.33-.34V5.4q.82 0 1.52.28.59.23 1.1.65c.05.02.08.05.1.07v-1h2.69v19.35c0 .95-.43 1.93-1.3 2.95-1.08 1.26-2.42 1.9-4.01 1.93h-7.3Zm.33-11.12v-8.4q.08-1.51 1.39-2.95c1.09-1.15 2.43-1.73 4.02-1.76v2.62c-1.08 0-1.9.47-2.46 1.4-.19.33-.29.63-.29.89v8.17c0 .66.34 1.25 1.02 1.76q.31.21.65.34.51.19 1.08.19v2.62c-2.04-.02-3.58-.89-4.65-2.59-.5-.82-.76-1.58-.76-2.29Zm14.83 4.98V10.38c0-1.06.48-2.1 1.43-3.12q.79-.8 1.75-1.25 1.17-.54 2.6-.54v2.75q-.96 0-1.66.42-.54.33-.93.91c-.24.38-.37.76-.37 1.16v12.78h-2.82Zm7.24-15.27V5.47c2.05 0 3.66.83 4.81 2.49.62.86.93 1.67.93 2.42v13.11h-2.82V10.71c0-.68-.35-1.29-1.03-1.82a2.97 2.97 0 0 0-1.89-.67Zm22.93-2.68h2.95l5.04 14.03-3.42 10.22h-2.82l3.26-10.25-5.01-14Zm7.33 7.69 3.02-7.69h2.92l-4.42 11.58h-.29l-1.23-3.89Zm-58 10.26V6h2.78v17.49h-2.78Zm36.5 0V6h2.78v17.49h-2.78Z" fill="currentColor" fill-rule="evenodd"/>
    <path d="m274.49 24.9-.02 10.27h1.26V24.9h-1.24Zm10.2 2.67c-.8.43-1.2 1.08-1.2 1.96 0 .2.02.38.05.56.16.59.6 1.03 1.34 1.32.2.07.53.15.99.26.42.1.73.19.92.25.77.23 1.15.54 1.15.92 0 .3-.1.57-.32.79-.3.31-.67.46-1.11.46v1.15c.56 0 1.05-.13 1.49-.39.75-.45 1.12-1.13 1.12-2.06 0-.34-.08-.65-.22-.92-.28-.51-.75-.84-1.41-.97-1.05-.25-1.76-.46-2.13-.61-.49-.19-.73-.45-.73-.76q0-.07.01-.14.04-.23.18-.44c.24-.36.59-.55 1.03-.55v-1.13c-.39 0-.77.1-1.16.3Zm1.8-.3v1.15c.15 0 .3.03.48.1q.53.19.74.57.13.24.13.55l1.15-.19c0-.44-.16-.85-.48-1.25-.51-.62-1.19-.93-2.02-.93Zm-29.11 5.75c0 .51.2.98.6 1.41q.22.23.48.39.57.35 1.36.35v-1.16q-.51 0-.83-.25-.17-.13-.28-.33a.834.834 0 0 1-.12-.41v-3.53q0-.11.03-.22.09-.33.45-.58.11-.07.23-.12.24-.09.52-.09v-1.17q-.81 0-1.38.37-.42.27-.71.72-.35.54-.35 1.06v3.56Zm3.1-4.53q.39 0 .65.19.21.15.33.42c.07.15.11.31.12.48v.35l1.13-.44q0-.48-.18-.88-.21-.48-.69-.85-.31-.23-.66-.34-.33-.11-.7-.11v1.18Zm3.32 4.53V29.36q.03-.64.61-1.26.33-.34.73-.54.52-.25 1.16-.25v1.18c-.57 0-.97.24-1.19.71-.07.15-.1.29-.1.44v3.19q0 .17.05.33.1.33.44.58c.23.18.5.27.8.27v1.17q-.73 0-1.28-.31-.5-.28-.86-.81c-.24-.36-.36-.71-.36-1.04Zm3.12 2.16v-1.17q.38 0 .66-.18.28-.17.45-.52c.07-.16.11-.31.11-.45v-3.22q0-.28-.11-.5-.12-.26-.4-.45c-.21-.13-.45-.2-.72-.2v-1.18q.69 0 1.23.3.48.27.83.79c.24.36.36.7.36 1.03v3.71q-.05.65-.61 1.26-.31.34-.69.53-.5.24-1.11.25Zm9.98-2.16v-3.6c0-.45.22-.89.63-1.32.51-.52 1.12-.78 1.83-.79v1.15c-.46 0-.82.2-1.09.61-.1.17-.16.33-.16.48v.99h3.26v-.99q0-.26-.11-.47-.16-.31-.56-.49c-.2-.1-.41-.14-.63-.14v-1.14q.4 0 .76.11.55.17 1.03.6.52.5.63 1.07.03.16.04.31v2.31h-4.42v1.31c0 .27.16.52.47.75.25.18.52.26.8.26v1.14c-.88 0-1.58-.36-2.08-1.08q-.4-.56-.4-1.07Zm-6.58-3.59v3.59c0 .32.12.66.35 1.03.47.74 1.14 1.12 2 1.12h1.1v-1.18h-1.11c-.22 0-.42-.07-.63-.2-.35-.22-.52-.49-.52-.8v-3.48c0-.15.05-.3.16-.47q.23-.33.54-.46.2-.08.43-.08h1.13v-1.17h-1.14c-.61 0-1.14.22-1.6.65-.46.45-.7.93-.71 1.45Zm-9.84 5.75q.39.01.75-.11.57-.18 1.05-.67.46-.5.57-1.07.04-.18.04-.35l-1.14-.43v.29l-.01.03q-.04.44-.27.71-.2.24-.54.35-.09.03-.17.05-.14.03-.28.03v1.17Zm24.08-2.29-1.15.22c0 .38.12.76.37 1.11.46.68 1.16 1.02 2.1 1.02v-1.15c-.2-.01-.42-.06-.64-.17-.45-.25-.68-.6-.68-1.03Zm-4.49 2.28v-1.15c.58 0 1.02-.25 1.31-.75q.09-.16.13-.31l1.03.38c-.17.67-.57 1.17-1.19 1.51-.4.21-.82.32-1.28.32Z" fill="#111" fill-rule="evenodd"/>
    <path d="M8.08 13.33q.64-.3 1.46-.3.52 0 1.02.11.16.04.33.09.64.21 1.24.49l.65-1.55q-.71-.35-1.54-.54-.31-.07-.62-.12-.53-.07-1.07-.07-1.3 0-2.32.42-.75.32-1.33.84-.19.18-.37.37-.68.79-1.04 1.87t-.36 2.37q0 1.78.56 3.1.37.85.99 1.46.33.33.73.58 1.16.73 2.91.73.93 0 1.64-.13.71-.12 1.4-.39v-1.6q-.73.24-1.42.38-.69.15-1.41.15-1.18 0-1.94-.52-.16-.1-.3-.22-.54-.48-.84-1.25-.38-.95-.38-2.28 0-.99.24-1.79.23-.79.68-1.35.23-.29.53-.52.25-.19.56-.33ZM22 20.59q.28-.83.28-1.91 0-1.42-.51-2.42-.36-.71-.92-1.17-.24-.2-.51-.36-.05-.02-.09-.05-.88-.47-2.02-.47-1.27 0-2.2.52-.33.19-.6.44-.5.44-.81 1.08-.5 1-.5 2.43 0 1.08.3 1.91.29.84.84 1.41.23.25.5.44.36.27.78.44.74.3 1.63.3.96 0 1.72-.3.51-.21.93-.54.19-.15.36-.34.54-.57.82-1.41Zm6.8-6.13q-.77-.25-1.72-.25-1.01 0-1.82.17t-1.52.46l.58 1.35q.64-.27 1.28-.41.33-.08.66-.11.32-.04.63-.04.96 0 1.42.27.23.13.34.33.12.2.12.46 0 .27-.12.47-.16.27-.53.42-.66.26-1.8.26h-.91v1.35h1.03q.84 0 1.38.13.55.14.82.42.1.1.16.21.12.22.12.5 0 .32-.14.55-.07.11-.17.2-.31.28-.84.4-.52.13-1.17.13-.88 0-1.64-.21-.77-.21-1.31-.47v1.58q.35.17.83.3.48.12 1.06.18.58.07 1.23.07 1.35 0 2.23-.35.87-.35 1.3-.95.22-.3.32-.64.1-.33.1-.68 0-.64-.26-1.05-.1-.15-.22-.28-.2-.22-.48-.38-.44-.24-.98-.37v-.07q.77-.21 1.22-.67.08-.09.15-.18.3-.43.3-1.07 0-.55-.24-.97-.09-.16-.21-.29-.44-.51-1.2-.77Zm19.69.48q-.84-.73-2.48-.73-.87 0-1.68.21-.81.21-1.44.55l.59 1.3q.37-.18.76-.32.21-.08.43-.15.19-.05.38-.09.43-.09.87-.09.75 0 1.17.37l.01.01q.42.38.42 1.28v.45l-1.5.06q-2.02.07-3.01.74-.38.26-.62.61-.38.57-.38 1.4 0 .9.35 1.48.19.32.46.55.23.19.5.32.61.29 1.39.29.73 0 1.24-.15.51-.16.9-.46.4-.3.76-.77h.06l.36 1.22h1.3V17.2q0-1.41-.7-2.13-.07-.07-.14-.13Zm30.05-.25q-.83-.48-1.98-.48-1.13 0-1.99.48-.05.03-.09.05-.22.13-.42.29-.59.49-.96 1.26-.5 1.01-.5 2.47 0 1.46.55 2.44.33.6.81 1.01.31.28.7.47.96.5 2.23.5.94 0 1.61-.14.67-.14 1.32-.45V21.1q-.7.31-1.36.47-.66.16-1.49.16-.96 0-1.57-.46-.13-.1-.24-.22-.64-.68-.67-1.93h5.77v-.99q0-1.22-.44-2.09-.26-.51-.65-.89-.28-.26-.63-.46Zm39.13-.11q-.68-.37-1.56-.37-.66 0-1.16.18-.49.19-.84.5t-.59.68h-.09l-.25-1.2h-1.5v12.49h1.84v-3.52q0-.32-.04-.7-.03-.37-.07-.69h.11q.23.33.58.61.34.28.83.45.48.17 1.14.17.82 0 1.49-.33.16-.08.31-.18.04-.02.07-.05.73-.51 1.15-1.47.43-1 .43-2.47 0-2.22-.93-3.34-.41-.49-.92-.76Zm11.34 6.01q.28-.83.28-1.91 0-1.42-.51-2.42-.37-.71-.92-1.17-.24-.2-.51-.36-.05-.02-.09-.05-.88-.47-2.02-.47-1.28 0-2.2.52-.33.19-.6.44-.5.44-.82 1.08-.49 1-.49 2.43 0 1.08.3 1.91.29.84.84 1.41.23.25.49.44.36.27.79.44.74.3 1.63.3.96 0 1.71-.3.52-.21.93-.54.2-.15.37-.34.54-.57.82-1.41Zm51.08-5.9q-.83-.48-1.99-.48-1.13 0-1.99.48-.04.03-.08.05-.22.13-.42.29-.6.49-.97 1.26-.49 1.01-.49 2.47 0 1.46.54 2.44.33.6.81 1.01.32.28.7.47.97.5 2.24.5.94 0 1.61-.14.67-.14 1.32-.45V21.1q-.7.31-1.36.47-.66.16-1.49.16-.96 0-1.57-.46-.13-.1-.24-.22-.64-.68-.68-1.93h5.78v-.99q0-1.22-.45-2.09-.26-.51-.65-.89-.28-.26-.62-.46Zm30.43 0q-.83-.48-1.99-.48-1.13 0-1.99.48-.04.03-.08.05-.22.13-.42.29-.6.49-.97 1.26-.49 1.01-.49 2.47 0 1.46.54 2.44.33.6.81 1.01.32.28.7.47.97.5 2.24.5.94 0 1.61-.14.67-.14 1.32-.45V21.1q-.7.31-1.36.47-.66.16-1.49.16-.96 0-1.57-.46-.13-.1-.24-.22-.64-.68-.68-1.93h5.78v-.99q0-1.22-.45-2.09-.26-.51-.65-.89-.28-.26-.62-.46ZM39.77 21.6v-7.23h-5.31q-.05.96-.19 1.91-.05.36-.12.72-.25 1.3-.69 2.48-.44 1.17-1.1 2.12h-.7v4.47h1.69v-3.05h5.97v3.05h1.7V21.6h-1.25Zm13.98-3.75v-3.48H51.9v8.65h1.85v-3.73h4.04v3.73h1.85v-8.65h-1.85v3.48h-4.04Zm10.28.94v-4.42h-1.77v8.65h2.23l4.33-6.68q0 .22-.03.64-.03.43-.05.88-.02.45-.02.8v4.36h1.76v-8.65h-2.23l-4.36 6.69q.02-.14.04-.43.03-.29.05-.63.02-.35.03-.68.02-.32.02-.53Zm24.22 0v-4.42h-1.76v8.65h2.22l4.34-6.68q-.01.22-.04.64l-.04.88q-.02.45-.02.8v4.36h1.76v-8.65h-2.24l-4.35 6.69q.02-.14.04-.43t.05-.63q.02-.35.03-.68.01-.32.01-.53Zm20.8 4.23v-8.65h-7.55v8.65h1.84v-7.19h3.86v7.19h1.85Zm29.41-1.42v-7.23h-5.31q-.04.96-.18 1.91-.06.36-.13.72-.24 1.3-.68 2.48-.45 1.17-1.1 2.12h-.71v4.47h1.7v-3.05h5.97v3.05h1.69V21.6h-1.25Zm9.89-4.06q.24-.4.24-.95 0-.76-.37-1.23-.03-.04-.07-.08-.44-.48-1.2-.69-.76-.22-1.73-.22h-3.9v8.65h3.92q1.29 0 2.09-.33.8-.33 1.17-.91.09-.14.16-.29.21-.46.21-1.02 0-.62-.29-1.05-.11-.18-.28-.32-.07-.06-.15-.12-.53-.38-1.27-.48v-.06q.79-.15 1.25-.62.13-.13.22-.28Zm4.36 1.25v-4.42h-1.77v8.65h2.23l4.33-6.68q0 .22-.03.64-.03.43-.05.88-.02.45-.02.8v4.36h1.76v-8.65h-2.24l-4.35 6.69q.02-.14.04-.43.03-.29.05-.63.02-.35.03-.68.02-.32.02-.53Zm16.91-.24 3.39-4.18h-1.94l-3.31 4.2v-4.2h-1.71v4.2l-3.3-4.2h-1.95l3.39 4.18-3.69 4.47h2.01l3.54-4.39v4.39h1.71v-4.39l3.54 4.39h2.02l-3.7-4.47Zm16.1-.7v-3.48h-1.84v8.65h1.84v-3.73h4.05v3.73h1.84v-8.65h-1.84v3.48h-4.05Zm10.28.94v-4.42h-1.76v8.65h2.22l4.34-6.68-.03.64q-.03.43-.05.88-.02.45-.02.8v4.36h1.76v-8.65h-2.24l-4.35 6.69q.02-.14.04-.43t.05-.63q.02-.35.03-.68.01-.32.01-.53ZM75.54 15.85q.43-.26 1.02-.26.65 0 1.06.28.12.09.23.18.25.25.4.61.21.5.21 1.14h-3.93q.09-1.08.63-1.64.17-.19.38-.31Zm101.55 0q.43-.26 1.01-.26.65 0 1.07.28.12.09.22.18.26.25.41.61.2.5.21 1.14h-3.94q.1-1.08.63-1.64.18-.19.39-.31Zm30.43 0q.43-.26 1.01-.26.65 0 1.07.28.12.09.22.18.26.25.41.61.2.5.21 1.14h-3.94q.1-1.08.63-1.64.18-.19.39-.31Zm-93.11.16q.45-.3 1.21-.3.63 0 1.06.29.27.19.46.48.5.78.5 2.18 0 .92-.22 1.6t-.66 1.04q-.08.07-.17.12-.39.25-.95.25-.79 0-1.26-.35-.03-.02-.06-.05-.42-.34-.6-.96-.2-.67-.2-1.63v-.26q.01-.9.22-1.51.18-.5.53-.8.06-.05.14-.1ZM16.24 20.3q-.23-.68-.23-1.62 0-1.43.52-2.2.15-.2.33-.36.51-.4 1.34-.4.77 0 1.26.35l.09.07q.41.34.62.93.22.66.22 1.61 0 .94-.22 1.62-.21.62-.64.97-.04.03-.07.05-.49.36-1.25.36-.77 0-1.25-.36l-.06-.04q-.44-.35-.66-.98Zm107.01 0q-.23-.68-.23-1.62 0-1.43.52-2.2.14-.2.33-.36.51-.4 1.34-.4.77 0 1.25.35.05.03.1.07.41.34.62.93.22.66.22 1.61 0 .94-.22 1.62-.21.62-.65.97-.03.03-.07.05-.48.36-1.25.36-.76 0-1.25-.36l-.06-.04q-.43-.35-.65-.98Zm23.33-4.07q.14.21.14.53 0 .32-.15.54-.11.18-.31.29-.47.26-1.37.26h-1.73v-2.09h1.98q.82 0 1.2.24.15.1.24.23Zm-110.55-.45h1.92v5.82h-3.67q.5-.78.85-1.73.36-.95.58-1.99.23-1.04.32-2.1Zm98.7 0h1.91v5.82h-3.66q.49-.78.85-1.73.35-.95.58-1.99.23-1.04.32-2.1Zm-88.34 3.15 1.12-.04v.75q0 .87-.42 1.39-.1.11-.21.21-.14.12-.3.22-.54.32-1.28.32-.63 0-1.01-.29-.06-.05-.12-.11-.26-.29-.26-.83 0-.41.18-.73.13-.24.37-.42.56-.42 1.93-.47Zm100.37.81q.2.26.2.67 0 .44-.22.72-.11.15-.28.25-.5.29-1.38.29h-1.92V19.2h1.88q.94 0 1.43.28.18.11.29.26Z" fill="#1F1E1E" fill-rule="evenodd"/>
</g></symbol><symbol id="door"><g fill="none">
    <path d="m10 17 5-5-5-5M15 12H3M15 3h4a2 2 0 0 1 2 2v14a2 2 0 0 1-2 2h-4" stroke="#1F1E1E" stroke-width="2" stroke-linecap="round" stroke-linejoin="round"/>
</g></symbol><symbol id="handshake"><g fill="none">
    <path d="M16.48 10.41c-.39.39-1.04.39-1.43 0l-4.47-4.46-7.05 7.04-.66-.63a3 3 0 0 1 0-4.24l4.24-4.24a3 3 0 0 1 4.24 0L16.48 9c.39.39.39 1.02 0 1.41Zm.7-2.12c.78.78.78 2.05 0 2.83-1.27 1.27-2.61.22-2.83 0l-3.76-3.76-5.57 5.57a.996.996 0 0 0 0 1.41c.39.39 1.02.39 1.42 0l4.62-4.62.71.71-4.62 4.62a.996.996 0 0 0 0 1.41c.39.39 1.02.39 1.42 0l4.62-4.62.71.71-4.62 4.62a.997.997 0 0 0 1.41 1.41l4.62-4.62.71.71-4.62 4.62a.998.998 0 0 0 .705 1.702.997.997 0 0 0 .705-.292l8.32-8.34a3 3 0 0 0 0-4.24l-4.24-4.24a3.001 3.001 0 0 0-4.18-.06l4.47 4.47Z" fill="#BC3324"/>
</g></symbol><symbol id="information"><g fill="none">
    <path fill-rule="evenodd" clip-rule="evenodd" d="M12 23c6.075 0 11-4.925 11-11S18.075 1 12 1 1 5.925 1 12s4.925 11 11 11Zm-1-6.6a1 1 0 0 1 1-1h.011a1 1 0 1 1 0 2H12a1 1 0 0 1-1-1Zm2-8.8a1 1 0 1 0-2 0V12a1 1 0 1 0 2 0V7.6Z" fill="#BC3324"/>
</g></symbol><symbol id="insta" viewBox="0 0 58 58"><g fill="none">
    <circle cx="29" cy="29" r="29" fill="#1F1E1E"/>
    <path d="M29 24a5 5 0 1 0 0 10 5 5 0 0 0 0-10Zm0 8.247a3.248 3.248 0 1 1 0-6.496 3.248 3.248 0 0 1 0 6.496Z" fill="#fff"/>
    <path d="M34 25a1 1 0 1 0 0-2 1 1 0 0 0 0 2Z" fill="currentColor"/>
    <path d="M38.47 22.444a5.106 5.106 0 0 0-2.924-2.918 7.348 7.348 0 0 0-2.428-.466c-1.07-.047-1.408-.06-4.12-.06s-3.06 0-4.12.06c-.83.016-1.65.174-2.426.466a5.11 5.11 0 0 0-2.925 2.918 7.293 7.293 0 0 0-.465 2.424c-.048 1.067-.062 1.405-.062 4.114 0 2.708 0 3.053.062 4.114.017.83.173 1.648.465 2.425a5.11 5.11 0 0 0 2.926 2.919 7.321 7.321 0 0 0 2.427.499c1.07.047 1.408.061 4.12.061s3.06 0 4.12-.061a7.355 7.355 0 0 0 2.428-.465 5.125 5.125 0 0 0 2.924-2.92 7.296 7.296 0 0 0 .466-2.423c.048-1.067.062-1.405.062-4.114 0-2.71 0-3.053-.062-4.114a7.286 7.286 0 0 0-.468-2.459Zm-1.352 10.57a5.585 5.585 0 0 1-.346 1.872 3.312 3.312 0 0 1-1.901 1.897 5.544 5.544 0 0 1-1.855.345c-1.055.049-1.353.061-4.058.061-2.708 0-2.984 0-4.06-.06a5.514 5.514 0 0 1-1.853-.346 3.316 3.316 0 0 1-1.91-1.897 5.627 5.627 0 0 1-.345-1.85c-.047-1.054-.058-1.351-.058-4.053s0-2.978.058-4.053a5.579 5.579 0 0 1 .346-1.87 3.314 3.314 0 0 1 1.909-1.899 5.571 5.571 0 0 1 1.853-.345c1.057-.047 1.353-.06 4.06-.06 2.706 0 2.984 0 4.058.06.634.008 1.26.125 1.855.345a3.322 3.322 0 0 1 1.901 1.899c.218.593.335 1.219.346 1.85.047 1.055.06 1.351.06 4.053s0 2.992-.048 4.052h-.013Z" fill="#fff"/>
</g></symbol><symbol id="location"><g fill="none">
    <circle cx="12" cy="12" r="9" fill="#BC3324"/>
</g></symbol><symbol id="logo" viewBox="0 0 202 147"><g fill="none">
    <path fill="#1F1E1E" d="M0 0h147v147H0z"/>
    <path d="M39.965 72.439H26.633V50.032h-.032v-.033h-4.686V73h18.05v-.561ZM43.932 73h18.117v-.561H48.618V61.285h10.494v-.594H48.618V50.56h13.43v-.561H43.933V73ZM70.7 73V50.56c2.87 0 11.714 1.089 12.374 13.893V73h4.686V49.999h-4.686v10.329C81.655 54.19 77.167 49.999 70.7 49.999h-4.686V73H70.7ZM97.39 73V50.56c2.87 0 11.714 1.089 12.374 13.893V73h4.686V49.999h-4.686v10.329c-1.419-6.138-5.907-10.329-12.375-10.329h-4.686V73h4.686ZM119.393 73h4.686V49.999h-4.686V73Z" fill="#fff"/>
    <path fill="#BC3324" d="M81 92h121v42H81z"/>
    <path d="M108.922 124h.54l2.94-8.55h8.55l3.33 8.55h4.47l-8.1-20.91h-4.53l-7.2 20.91Zm7.5-20.25 4.35 11.19h-8.19l3.84-11.19ZM132.644 103.09V124h4.26v-7.23h5.07l4.89 7.2h4.86l-5.16-7.65c3-.78 5.28-2.64 5.28-6.81 0-5.22-3.81-6.87-8.25-6.87-4.68 0-6.03 3.51-6.69 7.41v-6.96h-4.26Zm5.43 4.38c.81-2.94 2.91-4.14 4.77-4.29 4.47-.42 4.65 2.43 4.65 6.33 0 6.33-3.36 6.75-6.24 6.75h-4.35s-.12-4.14 1.17-8.79ZM162.084 103.6l.03 20.4h4.26v-20.4h8.61v-.51h-21.51v.51h8.61Z" fill="#fff"/>
</g></symbol><symbol id="logout"><g fill="none">
    <path d="m10 17 5-5-5-5M15 12H3M15 3h4a2 2 0 0 1 2 2v14a2 2 0 0 1-2 2h-4" stroke="#A51505" stroke-width="2" stroke-linecap="round" stroke-linejoin="round"/>
</g></symbol><symbol id="star"><g fill="none">
    <path d="M21.663 8.772a1 1 0 0 1 .33.462 1 1 0 0 1-.32 1.02l-4.13 4 1 5.68a1 1 0 0 1-.99 1.19.93.93 0 0 1-.46-.12l-5.1-2.68-5.12 2.67a1 1 0 0 1-1.45-1.07l1-5.68-4.13-4a1 1 0 0 1-.25-1 1 1 0 0 1 .81-.68l5.69-.84 2.55-5.16a1 1 0 0 1 1.8 0l2.55 5.17 5.69.83a1 1 0 0 1 .53.208Z" fill="#BC3324"/>
</g></symbol><symbol id="user"><g fill="none">
    <path d="M13.3 12.22A4.92 4.92 0 0 0 15 8.5a5 5 0 0 0-10 0 4.92 4.92 0 0 0 1.7 3.72A8 8 0 0 0 2 19.5a1 1 0 1 0 2 0 6 6 0 1 1 12 0 1 1 0 0 0 2 0 8 8 0 0 0-4.7-7.28ZM10 11.5a3 3 0 1 1 0-6 3 3 0 0 1 0 6Zm11.71-2.37a1 1 0 0 0-1.42 0l-2 2-.62-.63a1.002 1.002 0 0 0-1.71.705 1 1 0 0 0 .29.705l1.34 1.34a1 1 0 0 0 1.41 0l2.67-2.67a1 1 0 0 0 .04-1.45Z" fill="#1F1E1E"/>
</g></symbol><symbol id="user_check"><g fill="none">
    <path d="M13.3 12.22A4.92 4.92 0 0 0 15 8.5a5 5 0 0 0-10 0 4.92 4.92 0 0 0 1.7 3.72A8 8 0 0 0 2 19.5a1 1 0 1 0 2 0 6 6 0 1 1 12 0 1 1 0 0 0 2 0 8 8 0 0 0-4.7-7.28ZM10 11.5a3 3 0 1 1 0-6 3 3 0 0 1 0 6Zm11.71-2.37a1 1 0 0 0-1.42 0l-2 2-.62-.63a1.002 1.002 0 0 0-1.71.705 1 1 0 0 0 .29.705l1.34 1.34a1 1 0 0 0 1.41 0l2.67-2.67a1 1 0 0 0 .04-1.45Z" fill="#1F1E1E"/>
</g></symbol><symbol id="u_home-alt"><g fill="none">
    <path d="m20 8-6-5.26a3 3 0 0 0-4 0L4 8a3 3 0 0 0-1 2.26V19a3 3 0 0 0 3 3h12a3 3 0 0 0 3-3v-8.75A3 3 0 0 0 20 8Zm-6 12h-4v-5a1 1 0 0 1 1-1h2a1 1 0 0 1 1 1v5Zm5-1a1 1 0 0 1-1 1h-2v-5a3 3 0 0 0-3-3h-2a3 3 0 0 0-3 3v5H6a1 1 0 0 1-1-1v-8.75a1 1 0 0 1 .34-.75l6-5.25a1 1 0 0 1 1.32 0l6 5.25a1 1 0 0 1 .34.75V19Z" fill="#BC3324"/>
    <path d="M19 19a1 1 0 0 1-1 1h-2v-5a3 3 0 0 0-3-3h-2a3 3 0 0 0-3 3v5H6a1 1 0 0 1-1-1v-8.75a1 1 0 0 1 .34-.75l6-5.25a1 1 0 0 1 1.32 0l6 5.25a1 1 0 0 1 .34.75V19Z" fill="#BC3324"/>
</g></symbol><symbol id="vk" viewBox="0 0 58 58"><g fill="none">
    <circle cx="29" cy="29" r="29" fill="#1F1E1E"/>
    <path d="M22.71 19A3.725 3.725 0 0 0 19 22.71v12.58A3.725 3.725 0 0 0 22.71 39h12.58A3.725 3.725 0 0 0 39 35.29V22.71A3.725 3.725 0 0 0 35.29 19H22.71Zm0 1.818h12.58c1.054 0 1.892.838 1.892 1.893v12.578a1.881 1.881 0 0 1-1.893 1.893H22.711a1.88 1.88 0 0 1-1.893-1.893V22.711c0-1.055.838-1.893 1.893-1.893Z" fill="currentColor"/>
    <path fill-rule="evenodd" clip-rule="evenodd" d="M34.725 26.406c.083-.234 0-.406-.398-.406h-1.312c-.334 0-.488.149-.572.313 0 0-.667 1.37-1.613 2.26-.306.257-.445.34-.612.34-.083 0-.209-.083-.209-.317v-2.19c0-.28-.092-.406-.37-.406h-2.064c-.208 0-.334.13-.334.254 0 .266.473.328.522 1.077v1.628c0 .357-.077.422-.244.422-.445 0-1.527-1.377-2.17-2.951-.124-.307-.25-.43-.585-.43H23.45c-.375 0-.45.149-.45.313 0 .292.445 1.744 2.073 3.665C26.157 31.289 27.684 32 29.076 32c.835 0 .938-.158.938-.43v-.991c0-.316.079-.379.343-.379.195 0 .529.082 1.308.714.89.75 1.036 1.086 1.537 1.086h1.313c.375 0 .563-.158.455-.47-.12-.31-.544-.76-1.108-1.295-.306-.304-.765-.632-.904-.796-.195-.21-.14-.304 0-.492 0 0 1.6-1.897 1.766-2.54Z" fill="#fff"/>
</g></symbol><symbol id="x"><g fill="none">
    <path d="M18 6 6 18M6 6l12 12" stroke="#fff" stroke-width="2" stroke-linecap="round" stroke-linejoin="round"/>
</g></symbol><symbol id="&#x43a;&#x430;&#x440;&#x442;&#x430;_&#x437;&#x430;&#x432;&#x435;&#x434;&#x435;&#x43d;&#x438;&#x44f;"><g fill="none">
    <g class="scene__dance-floor">
        <path d="M462 82.5c0 38.936-31.564 70.5-70.5 70.5S321 121.436 321 82.5 352.564 12 391.5 12 462 43.564 462 82.5Z" fill="#1F1E1E"/>
        <path d="M362.453 89h-1.867v-9.82h-3.359v-1.602h8.585v1.602h-3.359V89Zm10.328 0-.367-1.203h-.062c-.417.526-.836.885-1.258 1.078-.422.188-.964.281-1.625.281-.849 0-1.513-.229-1.992-.687-.474-.459-.711-1.107-.711-1.946 0-.89.33-1.562.992-2.015.661-.453 1.669-.7 3.023-.742l1.492-.047v-.461c0-.552-.13-.964-.39-1.235-.255-.276-.654-.414-1.195-.414-.443 0-.868.066-1.274.196s-.797.283-1.172.46l-.594-1.312c.469-.245.982-.43 1.54-.555a6.944 6.944 0 0 1 1.578-.195c1.099 0 1.927.24 2.484.719.562.479.844 1.232.844 2.258V89h-1.313Zm-2.734-1.25c.667 0 1.2-.185 1.601-.555.407-.375.61-.898.61-1.57v-.75l-1.11.047c-.864.031-1.494.177-1.89.437-.391.256-.586.649-.586 1.18 0 .385.114.685.344.898.229.209.573.313 1.031.313Zm8.445-7.39v3.468h4.07V80.36h1.836V89h-1.836v-3.727h-4.07V89h-1.836v-8.64h1.836Zm16.235 7.218h1.25v4.461h-1.727V89h-7.219v-8.64h1.836v7.187h4.024v-7.188h1.836v7.22Zm10.375-7.219V89h-1.844v-7.188h-3.875V89h-1.836v-8.64h7.555Zm10.296 4.305c0 1.412-.362 2.513-1.086 3.305-.723.791-1.731 1.187-3.023 1.187-.807 0-1.521-.182-2.141-.547a3.612 3.612 0 0 1-1.429-1.57c-.334-.682-.5-1.474-.5-2.375 0-1.401.359-2.495 1.078-3.281.719-.787 1.732-1.18 3.039-1.18 1.25 0 2.24.404 2.969 1.211.729.802 1.093 1.885 1.093 3.25Zm-6.289 0c0 1.995.737 2.992 2.211 2.992 1.459 0 2.188-.997 2.188-2.992 0-1.974-.735-2.96-2.203-2.96-.771 0-1.331.254-1.68.765-.344.51-.516 1.242-.516 2.195ZM424.617 89h-1.851v-7.203h-2.383c-.146 1.854-.344 3.302-.594 4.344-.245 1.041-.568 1.802-.969 2.28-.396.48-.911.72-1.547.72-.401 0-.737-.058-1.007-.172V87.53c.192.073.385.11.578.11.531 0 .948-.597 1.25-1.79.307-1.197.547-3.028.718-5.492h5.805V89Z" fill="#fff"/>
    </g>
    <g class="scene__table scene__table--red">
        <g class="scene__table-group" stroke="#BC3324">
            <path d="M507.5 35.5h83v28h-83z"/>
            <circle cx="527" cy="20" r="11.5"/>
            <circle cx="570" cy="20" r="11.5"/>
            <circle cx="606" cy="48" r="11.5"/>
            <circle cx="570" cy="79" r="11.5"/>
            <circle cx="527" cy="79" r="11.5"/>
        </g>
        <path class="scene__table-num" d="M552.199 56h-3.916v-7.773c0-.352.003-.74.01-1.162.013-.424.029-.805.049-1.143a6.41 6.41 0 0 1-.479.518c-.143.143-.283.276-.42.4l-1.621 1.338-2.002-2.461 4.903-3.994h3.476V56Z" fill="#BC3324"/>
        <path fill="transparent" d="M507 8h111v83H507z"/>
    </g>
    <g class="scene__table">
        <g class="scene__table-group" stroke="#1F1E1E">
            <path d="M712.5 4.5h40v93h-40z"/>
            <circle cx="697" cy="16" r="11.5"/>
            <circle cx="768" cy="17" r="11.5"/>
            <circle cx="697" cy="49" r="11.5"/>
            <circle cx="768" cy="50" r="11.5"/>
            <circle cx="697" cy="82" r="11.5"/>
            <circle cx="768" cy="83" r="11.5"/>
            <circle cx="733" cy="113" r="11.5"/>
        </g>
        <path class="scene__table-num" d="M737.957 60h-10.361v-2.54l3.486-3.525c.996-1.041 1.647-1.75 1.953-2.128.306-.385.518-.713.635-.987.124-.273.185-.56.185-.86 0-.37-.12-.663-.361-.878-.241-.215-.579-.322-1.015-.322-.45 0-.905.13-1.368.39-.455.254-.973.632-1.552 1.133l-2.12-2.48c.736-.658 1.355-1.127 1.856-1.406a6.519 6.519 0 0 1 1.631-.655 8.132 8.132 0 0 1 1.992-.224c.924 0 1.748.162 2.471.488.729.325 1.292.79 1.689 1.396.404.6.606 1.273.606 2.022 0 .56-.072 1.077-.215 1.553a5.443 5.443 0 0 1-.645 1.406 9.645 9.645 0 0 1-1.172 1.445c-.481.508-1.513 1.471-3.095 2.89v.098h5.4V60Z" fill="#1F1E1E"/>
        <path fill="transparent" d="M685 4h95v121h-95z"/>
    </g>
    <g class="scene__table">
        <g class="scene__table-group" stroke="#1F1E1E">
            <path d="M712.5 185.5h40v93h-40z"/>
            <circle cx="697" cy="197" r="11.5"/>
            <circle cx="768" cy="198" r="11.5"/>
            <circle cx="697" cy="230" r="11.5"/>
            <circle cx="768" cy="231" r="11.5"/>
            <circle cx="697" cy="263" r="11.5"/>
            <circle cx="768" cy="264" r="11.5"/>
            <circle cx="733" cy="294" r="11.5"/>
        </g>
        <path class="scene__table-num" d="M737.479 229.818c0 .886-.271 1.647-.811 2.286-.54.631-1.322 1.09-2.344 1.376v.059c2.383.3 3.574 1.426 3.574 3.379 0 1.328-.527 2.373-1.582 3.135-1.048.761-2.506 1.142-4.375 1.142a12.86 12.86 0 0 1-2.138-.166 11.1 11.1 0 0 1-2.119-.605v-3.203a8.709 8.709 0 0 0 1.904.713c.651.149 1.25.224 1.797.224.846 0 1.461-.117 1.845-.351.391-.241.586-.616.586-1.123 0-.391-.101-.691-.302-.899-.202-.215-.528-.374-.977-.478-.449-.111-1.035-.166-1.758-.166h-.879v-2.901h.899c1.959 0 2.939-.501 2.939-1.504 0-.377-.146-.657-.439-.84-.287-.182-.674-.273-1.162-.273-.912 0-1.856.306-2.832.918l-1.602-2.578a7.773 7.773 0 0 1 2.315-1.113c.794-.222 1.702-.332 2.724-.332 1.478 0 2.637.293 3.477.878.84.586 1.26 1.394 1.26 2.422Z" fill="#1F1E1E"/>
        <path fill="transparent" d="M685 185h95v121h-95z"/>
    </g>
    <g class="scene__table scene__table--red">
        <g class="scene__table-group" stroke="#BC3324">
            <path d="M507.5 182.5h83v28h-83z"/>
            <circle cx="527" cy="167" r="11.5"/>
            <circle cx="570" cy="167" r="11.5"/>
            <circle cx="606" cy="195" r="11.5"/>
            <circle cx="570" cy="226" r="11.5"/>
            <circle cx="527" cy="226" r="11.5"/>
        </g>
        <path class="scene__table-num" d="M554.416 199.236h-1.572V202h-3.809v-2.764h-5.693v-2.832l5.937-8.681h3.565v8.632h1.572v2.881Zm-5.381-2.881v-1.66c0-.312.01-.732.029-1.259.026-.534.046-.814.059-.84h-.107c-.222.501-.472.97-.752 1.406l-1.582 2.353h2.353Z" fill="#BC3324"/>
        <path fill="transparent" d="M507 155h111v83H507z"/>
    </g>
    <g class="scene__table">
        <g class="scene__table-group" stroke="#1F1E1E">
            <path d="M494.5 278.5h40v93h-40z"/>
            <circle cx="479" cy="290" r="11.5"/>
            <circle cx="550" cy="291" r="11.5"/>
            <circle cx="479" cy="323" r="11.5"/>
            <circle cx="550" cy="324" r="11.5"/>
            <circle cx="479" cy="356" r="11.5"/>
            <circle cx="550" cy="357" r="11.5"/>
            <circle cx="515" cy="387" r="11.5"/>
        </g>
        <path class="scene__table-num" d="M515.484 322.645c.821 0 1.56.192 2.217.576a3.869 3.869 0 0 1 1.543 1.611c.371.697.557 1.501.557 2.412 0 1.595-.482 2.819-1.446 3.672-.957.853-2.408 1.279-4.355 1.279-1.667 0-3.027-.257-4.082-.771v-3.164c.566.26 1.204.475 1.914.644.716.17 1.331.254 1.846.254.716 0 1.266-.15 1.65-.449.384-.306.576-.755.576-1.348 0-.547-.195-.973-.586-1.279-.39-.306-.983-.459-1.777-.459-.605 0-1.26.114-1.963.342l-1.416-.703.537-7.539h8.145v3.213h-4.864l-.175 1.884c.507-.097.869-.149 1.084-.156.215-.013.413-.019.595-.019Z" fill="#1F1E1E"/>
        <path fill="transparent" d="M467 278h95v121h-95z"/>
    </g>
    <g class="scene__table">
        <g class="scene__table-group" stroke="#1F1E1E">
            <path d="M273.5 278.5h40v93h-40z"/>
            <circle cx="258" cy="290" r="11.5"/>
            <circle cx="329" cy="291" r="11.5"/>
            <circle cx="258" cy="323" r="11.5"/>
            <circle cx="329" cy="324" r="11.5"/>
            <circle cx="258" cy="356" r="11.5"/>
            <circle cx="329" cy="357" r="11.5"/>
            <circle cx="294" cy="387" r="11.5"/>
        </g>
        <path class="scene__table-num" d="M288.684 326.965c0-1.992.283-3.604.849-4.834.573-1.237 1.413-2.149 2.52-2.735 1.113-.585 2.483-.878 4.111-.878.579 0 1.257.055 2.031.166v3.017a11.335 11.335 0 0 0-2.119-.185c-1.289 0-2.249.283-2.881.849-.631.567-.976 1.491-1.035 2.774h.117c.586-1.107 1.527-1.66 2.823-1.66 1.269 0 2.252.41 2.949 1.23.703.814 1.055 1.95 1.055 3.408 0 1.569-.443 2.809-1.329 3.721-.885.905-2.122 1.357-3.711 1.357-1.686 0-3.004-.547-3.955-1.64-.95-1.094-1.425-2.624-1.425-4.59Zm5.293 3.174c.41 0 .742-.153.996-.459.26-.313.39-.808.39-1.485 0-1.159-.449-1.738-1.347-1.738-.443 0-.804.15-1.084.449-.274.3-.411.664-.411 1.094 0 .625.134 1.139.401 1.543.267.397.618.596 1.055.596Z" fill="#1F1E1E"/>
        <path opacity=".01" fill="transparent" d="M246 278h95v121h-95z"/>
    </g>
    <g class="scene__table scene__table--red">
        <g class="scene__table-group" stroke="#BC3324">
            <path d="M320.5 183.5h83v28h-83z"/>
            <circle cx="383" cy="227" r="11.5"/>
            <circle cx="419" cy="197" r="11.5"/>
            <circle cx="305" cy="197" r="11.5"/>
            <circle cx="340" cy="227" r="11.5"/>
        </g>
        <path class="scene__table-num" d="m358.041 204 4.902-11.084h-6.181v-3.193h10.302v2.275L362.035 204h-3.994Z" fill="#BC3324"/>
        <path fill="transparent" d="M293 183h138v56H293z"/>
    </g>
    <g class="scene__table scene__table--red">
        <g class="scene__table-group" stroke="#BC3324">
            <path d="M187.5 169.5h61v36h-61z"/>
            <circle cx="216" cy="221" r="11.5" transform="rotate(-180 216 221)"/>
            <circle cx="171" cy="185" r="11.5" transform="rotate(-180 171 185)"/>
            <circle cx="216" cy="154" r="11.5" transform="rotate(-180 216 154)"/>
        </g>
        <path class="scene__table-num" d="M215.898 180.518c.944 0 1.771.127 2.481.38.716.254 1.276.642 1.68 1.163.403.514.605 1.162.605 1.943 0 .573-.107 1.077-.322 1.514a3.575 3.575 0 0 1-.869 1.132 5.698 5.698 0 0 1-1.27.83c.449.254.895.551 1.338.889.443.339.811.739 1.104 1.201.293.456.439 1 .439 1.631 0 .762-.186 1.445-.557 2.051-.371.599-.94 1.074-1.709 1.426-.768.345-1.754.517-2.959.517-1.204 0-2.19-.166-2.959-.498-.768-.332-1.334-.794-1.699-1.386-.358-.599-.537-1.29-.537-2.071 0-.664.111-1.224.332-1.679.228-.456.537-.844.928-1.163a7.33 7.33 0 0 1 1.338-.859 7.026 7.026 0 0 1-1.094-.908 3.956 3.956 0 0 1-.791-1.162 3.601 3.601 0 0 1-.293-1.485c0-.768.205-1.409.615-1.923.41-.515.977-.899 1.699-1.153.73-.26 1.563-.39 2.5-.39Zm-1.699 10.566c0 .397.143.719.43.967.286.247.683.371 1.191.371.593 0 1.026-.111 1.299-.332.28-.228.42-.537.42-.928 0-.293-.088-.557-.264-.791a2.851 2.851 0 0 0-.595-.625 5.613 5.613 0 0 0-.596-.41l-.264-.156a5.234 5.234 0 0 0-.81.508c-.241.182-.436.39-.586.624-.15.228-.225.486-.225.772Zm1.68-7.783a1.28 1.28 0 0 0-.83.283c-.235.182-.352.433-.352.752 0 .208.049.404.147.586.104.176.241.338.41.488.176.15.371.287.586.41a7.12 7.12 0 0 0 .556-.361 1.81 1.81 0 0 0 .459-.469c.124-.182.186-.4.186-.654 0-.319-.117-.57-.352-.752a1.227 1.227 0 0 0-.81-.283Z" fill="#BC3324"/>
        <path fill="transparent" d="M159 142h90v91h-90z"/>
    </g>
    <g class="scene__table scene__table--red">
        <g class="scene__table-group" stroke="#BC3324">
            <path d="M222.5 27.5h61v36h-61z"/>
            <circle cx="251" cy="79" r="11.5" transform="rotate(-180 251 79)"/>
            <circle cx="206" cy="43" r="11.5" transform="rotate(-180 206 43)"/>
            <circle cx="251" cy="12" r="11.5" transform="rotate(-180 251 12)"/>
        </g>
        <path class="scene__table-num" d="M256.064 45.256c0 2.793-.602 4.814-1.806 6.064-1.205 1.25-3.132 1.875-5.781 1.875-.873 0-1.537-.032-1.993-.097V50.04c.56.104 1.12.156 1.68.156 1.38 0 2.445-.283 3.193-.85.749-.572 1.156-1.474 1.221-2.704h-.117c-.254.468-.505.807-.752 1.015-.247.209-.55.368-.908.479-.358.11-.804.166-1.338.166-1.237 0-2.204-.414-2.901-1.24-.696-.827-1.044-1.967-1.044-3.419 0-1.581.449-2.822 1.347-3.72.905-.899 2.142-1.348 3.711-1.348 1.745 0 3.096.58 4.053 1.739.957 1.158 1.435 2.805 1.435 4.94Zm-5.38-3.594a1.31 1.31 0 0 0-1.036.46c-.26.305-.39.797-.39 1.474 0 .534.114.96.342 1.279.227.313.576.469 1.045.469.423 0 .791-.153 1.103-.46.313-.305.469-.673.469-1.103 0-.58-.147-1.077-.44-1.494-.286-.417-.651-.625-1.093-.625Z" fill="#BC3324"/>
        <path fill="transparent" d="M194 0h90v91h-90z"/>
    </g>
    <g class="scene__table">
        <g class="scene__table-group" stroke="#1F1E1E">
            <path d="M110.5 65V.5h31v92h-126v-27h95V65Z"/>
            <circle cx="27" cy="50" r="11.5"/>
            <circle cx="61" cy="50" r="11.5"/>
            <circle cx="94" cy="50" r="11.5"/>
            <circle cx="94" cy="16" r="11.5"/>
        </g>
        <path class="scene__table-num" d="M121.199 85h-3.916v-7.773c0-.352.003-.74.01-1.163.013-.423.029-.804.049-1.142a6.41 6.41 0 0 1-.479.517c-.143.144-.283.277-.42.4l-1.621 1.339-2.002-2.461 4.903-3.994h3.476V85Zm13.535-7.12c0 1.147-.091 2.172-.273 3.077-.182.899-.475 1.663-.879 2.295A3.929 3.929 0 0 1 132 84.697c-.658.332-1.465.498-2.422.498-1.191 0-2.168-.29-2.93-.869-.761-.586-1.324-1.422-1.689-2.51-.358-1.093-.537-2.405-.537-3.935 0-1.543.163-2.862.488-3.955.332-1.1.876-1.944 1.631-2.53.755-.585 1.768-.878 3.037-.878 1.192 0 2.165.293 2.92.879.762.579 1.325 1.419 1.69 2.519.364 1.094.546 2.415.546 3.965Zm-6.474 0c0 .932.032 1.713.097 2.345.072.631.202 1.106.391 1.425.195.313.472.47.83.47a.903.903 0 0 0 .82-.47c.189-.319.319-.79.391-1.416.072-.631.107-1.416.107-2.353 0-.944-.035-1.732-.107-2.363-.072-.632-.202-1.107-.391-1.426-.188-.326-.462-.489-.82-.489-.358 0-.635.163-.83.489-.189.319-.319.794-.391 1.426-.065.631-.097 1.419-.097 2.363Z" fill="#1F1E1E"/>
        <path fill="transparent" d="M15 0h127v93H15z"/>
    </g>
    <g class="scene__table">
        <g class="scene__table-group" stroke="#1F1E1E">
            <path d="M27.5 185.5h40v93h-40z"/>
            <circle cx="12" cy="197" r="11.5"/>
            <circle cx="83" cy="198" r="11.5"/>
            <circle cx="12" cy="230" r="11.5"/>
            <circle cx="83" cy="231" r="11.5"/>
            <circle cx="12" cy="263" r="11.5"/>
            <circle cx="83" cy="264" r="11.5"/>
            <circle cx="48" cy="294" r="11.5"/>
        </g>
        <path class="scene__table-num" d="M45.2 241h-3.917v-7.559c0-.918.02-1.757.059-2.519-.241.293-.54.599-.899.918l-1.62 1.338-2.003-2.461 4.903-3.994h3.476V241Zm11.718 0h-3.916v-7.559c0-.918.02-1.757.058-2.519a8.36 8.36 0 0 1-.898.918l-1.621 1.338-2.002-2.461 4.902-3.994h3.477V241Z" fill="#1F1E1E"/>
        <path opacity=".01" fill="transparent" d="M0 185h95v121H0z"/>
    </g>
</g></symbol></svg>