<svg viewBox="0 0 302.082 35.2446" fill="none" xmlns="http://www.w3.org/2000/svg" xmlns:xlink="http://www.w3.org/1999/xlink">
	<desc>
			Created with Pixso.
	</desc>
	<defs/>
	<path id="Dignity" d="M279.71 8.42L279.71 5.74L281.9 5.74L281.9 0L284.72 0L284.72 5.74L286.85 5.74L286.85 8.46L284.72 8.46L284.72 17.98C284.72 19.55 285.37 20.42 286.65 20.6C286.89 20.64 287.13 20.67 287.38 20.67L287.84 20.67L288.47 23.49L287.28 23.49C284.56 23.47 282.89 22.45 282.27 20.43C282.05 19.68 281.94 18.75 281.94 17.65L281.9 8.42L279.71 8.42ZM222.08 23.49L222.08 0.26L224.96 0.26L224.96 23.49L222.08 23.49ZM226.62 23.49L226.62 20.63C228.88 20.63 230.39 20.28 231.17 19.57C231.83 18.95 232.16 18.08 232.16 16.95L232.16 6.8Q232.16 5.61 231.61 4.8Q230.8 3.63 228.81 3.28Q227.88 3.11 226.62 3.11L226.62 0.26Q231.61 0.26 233.69 2.72L233.69 2.72Q234.07 3.17 234.35 3.71C234.84 4.6 235.08 5.62 235.08 6.8L235.08 16.95C235.08 21.11 232.55 23.29 227.49 23.49L226.62 23.49ZM237.91 3.08C237.91 2.39 238.23 1.91 238.87 1.62Q239.2 1.49 239.53 1.49C240.19 1.49 240.68 1.8 240.99 2.42Q241.12 2.75 241.12 3.08C241.12 3.74 240.81 4.23 240.19 4.54C239.97 4.63 239.75 4.67 239.53 4.67C238.85 4.67 238.35 4.36 238.04 3.74C237.95 3.52 237.91 3.3 237.91 3.08ZM274.4 3.08C274.4 2.39 274.73 1.91 275.37 1.62C275.59 1.53 275.81 1.49 276.03 1.49C276.69 1.49 277.18 1.8 277.49 2.42C277.58 2.64 277.62 2.86 277.62 3.08C277.62 3.74 277.31 4.23 276.69 4.54C276.47 4.63 276.25 4.67 276.03 4.67C275.34 4.67 274.85 4.36 274.54 3.74C274.45 3.52 274.4 3.3 274.4 3.08ZM243.48 29.63L244.18 27.04L250.41 27.04C251.65 26.99 252.56 26.51 253.14 25.58C253.31 25.27 253.4 24.99 253.4 24.75L253.4 22.36C252.49 23 251.59 23.34 250.68 23.39L250.68 20.83C251.65 20.83 252.43 20.42 253 19.61C253.27 19.23 253.4 18.85 253.4 18.48L253.4 10.35C253.4 9.51 252.94 8.84 252.01 8.36C251.56 8.14 251.12 8.02 250.68 8.02L250.68 5.4Q251.5 5.4 252.2 5.68L252.2 5.68Q252.79 5.91 253.3 6.33C253.35 6.35 253.38 6.38 253.4 6.4L253.4 5.4L256.09 5.4L256.09 24.75C256.09 25.7 255.66 26.68 254.79 27.7C253.71 28.96 252.37 29.6 250.78 29.63L243.48 29.63ZM243.81 18.51L243.81 10.21Q243.81 10.16 243.81 10.11L243.81 10.11Q243.89 8.6 245.2 7.16C246.29 6.01 247.63 5.43 249.22 5.4L249.22 8.02C248.14 8.02 247.32 8.49 246.76 9.42C246.57 9.75 246.47 10.05 246.47 10.31L246.47 18.48C246.47 19.14 246.81 19.73 247.49 20.24Q247.8 20.45 248.14 20.58Q248.65 20.77 249.22 20.77L249.22 23.39C247.18 23.37 245.64 22.5 244.57 20.8C244.07 19.98 243.81 19.22 243.81 18.51ZM258.64 23.49L258.64 10.38C258.64 9.32 259.12 8.28 260.07 7.26Q260.86 6.46 261.82 6.01Q262.99 5.47 264.42 5.47L264.42 8.22Q263.46 8.22 262.76 8.64Q262.22 8.97 261.83 9.55C261.59 9.93 261.46 10.31 261.46 10.71L261.46 23.49L258.64 23.49ZM265.88 8.22L265.88 5.47C267.93 5.47 269.54 6.3 270.69 7.96C271.31 8.82 271.62 9.63 271.62 10.38L271.62 23.49L268.8 23.49L268.8 10.71C268.8 10.03 268.45 9.42 267.77 8.89C267.22 8.45 266.58 8.22 265.88 8.22ZM288.81 5.54L291.76 5.54L296.8 19.57L293.38 29.79L290.56 29.79L293.82 19.54L288.81 5.54ZM296.14 13.23L299.16 5.54L302.08 5.54L297.66 17.12L297.37 17.12L296.14 13.23ZM238.14 23.49L238.14 6L240.92 6L240.92 23.49L238.14 23.49ZM274.64 23.49L274.64 6L277.42 6L277.42 23.49L274.64 23.49Z" fill="currentColor" fill-opacity="1.000000" fill-rule="evenodd"/>
	<path id="Codes" d="M274.49 24.9L274.47 35.17L275.73 35.17L275.73 24.9L274.49 24.9ZM284.69 27.57C283.89 28 283.49 28.65 283.49 29.53C283.49 29.73 283.51 29.91 283.54 30.09C283.7 30.68 284.14 31.12 284.88 31.41C285.08 31.48 285.41 31.56 285.87 31.67C286.29 31.77 286.6 31.86 286.79 31.92C287.56 32.15 287.94 32.46 287.94 32.84C287.94 33.14 287.84 33.41 287.62 33.63C287.32 33.94 286.95 34.09 286.51 34.09L286.51 35.24C287.07 35.24 287.56 35.11 288 34.85C288.75 34.4 289.12 33.72 289.12 32.79C289.12 32.45 289.04 32.14 288.9 31.87C288.62 31.36 288.15 31.03 287.49 30.9C286.44 30.65 285.73 30.44 285.36 30.29C284.87 30.1 284.63 29.84 284.63 29.53Q284.63 29.46 284.64 29.39Q284.68 29.16 284.82 28.95C285.06 28.59 285.41 28.4 285.85 28.4L285.85 27.27C285.46 27.27 285.08 27.37 284.69 27.57ZM286.49 27.27L286.49 28.42C286.64 28.42 286.79 28.45 286.97 28.52Q287.5 28.71 287.71 29.09Q287.84 29.33 287.84 29.64L288.99 29.45C288.99 29.01 288.83 28.6 288.51 28.2C288 27.58 287.32 27.27 286.49 27.27ZM257.38 33.02C257.38 33.53 257.58 34 257.98 34.43Q258.2 34.66 258.46 34.82Q259.03 35.17 259.82 35.17L259.82 34.01Q259.31 34.01 258.99 33.76Q258.82 33.63 258.71 33.43C258.63 33.29 258.59 33.15 258.59 33.02L258.59 29.49Q258.59 29.38 258.62 29.27L258.62 29.27Q258.71 28.94 259.07 28.69Q259.18 28.62 259.3 28.57L259.3 28.57Q259.54 28.48 259.82 28.48L259.82 27.31Q259.01 27.31 258.44 27.68L258.44 27.68Q258.02 27.95 257.73 28.4Q257.38 28.94 257.38 29.46L257.38 33.02ZM260.48 28.49Q260.87 28.49 261.13 28.68Q261.34 28.83 261.46 29.1C261.53 29.25 261.57 29.41 261.58 29.58L261.58 29.93L262.71 29.49Q262.71 29.01 262.53 28.61L262.53 28.61L262.53 28.61Q262.32 28.13 261.84 27.76Q261.53 27.53 261.18 27.42Q260.85 27.31 260.48 27.31L260.48 28.49ZM263.8 33.02L263.8 29.43Q263.8 29.4 263.8 29.36Q263.83 28.72 264.41 28.1Q264.74 27.76 265.14 27.56L265.14 27.56L265.14 27.56Q265.66 27.31 266.3 27.31L266.3 28.49C265.73 28.49 265.33 28.73 265.11 29.2C265.04 29.35 265.01 29.49 265.01 29.64L265.01 32.83Q265.01 33 265.06 33.16Q265.16 33.49 265.5 33.74C265.73 33.92 266 34.01 266.3 34.01L266.3 35.18Q265.57 35.18 265.02 34.87Q264.52 34.59 264.16 34.06C263.92 33.7 263.8 33.35 263.8 33.02ZM266.92 35.18L266.92 34.01Q267.3 34.01 267.58 33.83Q267.86 33.66 268.03 33.31C268.1 33.15 268.14 33 268.14 32.86L268.14 29.64Q268.14 29.36 268.03 29.14L268.03 29.14Q267.91 28.88 267.63 28.69C267.42 28.56 267.18 28.49 266.91 28.49L266.91 27.31Q267.6 27.31 268.14 27.61Q268.62 27.88 268.97 28.4C269.21 28.76 269.33 29.1 269.33 29.43L269.33 33.02Q269.33 33.08 269.33 33.14L269.33 33.14L269.33 33.14L269.33 33.14Q269.28 33.79 268.72 34.4Q268.41 34.74 268.03 34.93L268.03 34.93Q267.53 35.17 266.92 35.18ZM276.9 33.02L276.9 29.42C276.9 28.97 277.12 28.53 277.53 28.1C278.04 27.58 278.65 27.32 279.36 27.31L279.36 28.46C278.9 28.46 278.54 28.66 278.27 29.07C278.17 29.24 278.11 29.4 278.11 29.55L278.11 30.54L281.37 30.54L281.37 29.55Q281.37 29.29 281.26 29.08Q281.1 28.77 280.7 28.59C280.5 28.49 280.29 28.45 280.07 28.45L280.07 27.31Q280.47 27.31 280.83 27.42Q281.38 27.59 281.86 28.02Q282.38 28.52 282.49 29.09Q282.52 29.25 282.53 29.4L282.53 31.71L278.11 31.71L278.11 33.02C278.11 33.29 278.27 33.54 278.58 33.77C278.83 33.95 279.1 34.03 279.38 34.03L279.38 35.17C278.5 35.17 277.8 34.81 277.3 34.09Q276.9 33.53 276.9 33.02ZM270.32 29.43L270.32 33.02C270.32 33.34 270.44 33.68 270.67 34.05C271.14 34.79 271.81 35.17 272.67 35.17L273.77 35.17L273.77 33.99L272.66 33.99C272.44 33.99 272.24 33.92 272.03 33.79C271.68 33.57 271.51 33.3 271.51 32.99L271.51 29.51C271.51 29.36 271.56 29.21 271.67 29.04Q271.9 28.71 272.21 28.58Q272.41 28.5 272.64 28.5L273.77 28.5L273.77 27.33L272.63 27.33C272.02 27.33 271.49 27.55 271.03 27.98C270.57 28.43 270.33 28.91 270.32 29.43ZM260.48 35.18Q260.87 35.19 261.23 35.07L261.23 35.07Q261.8 34.89 262.28 34.4Q262.74 33.9 262.85 33.33Q262.89 33.15 262.89 32.98L261.75 32.55L261.75 32.84L261.74 32.87Q261.7 33.31 261.47 33.58L261.47 33.58Q261.27 33.82 260.93 33.93Q260.84 33.96 260.76 33.98L260.76 33.98Q260.62 34.01 260.48 34.01L260.48 35.18ZM284.56 32.89L283.41 33.11C283.41 33.49 283.53 33.87 283.78 34.22C284.24 34.9 284.94 35.24 285.88 35.24L285.88 34.09C285.68 34.08 285.46 34.03 285.24 33.92C284.79 33.67 284.56 33.32 284.56 32.89ZM280.07 35.17L280.07 34.02C280.65 34.02 281.09 33.77 281.38 33.27Q281.47 33.11 281.51 32.96L282.54 33.34C282.37 34.01 281.97 34.51 281.35 34.85C280.95 35.06 280.53 35.17 280.07 35.17Z" fill="#111111" fill-opacity="1.000000" fill-rule="evenodd"/>
	<path id="Создание и продвижение" d="M8.08 13.33Q8.72 13.03 9.54 13.03Q10.06 13.03 10.56 13.14Q10.72 13.18 10.89 13.23Q11.53 13.44 12.13 13.72L12.78 12.17Q12.07 11.82 11.24 11.63Q10.93 11.56 10.62 11.51Q10.09 11.44 9.55 11.44Q8.25 11.44 7.23 11.86Q6.48 12.18 5.9 12.7Q5.71 12.88 5.53 13.07Q4.85 13.86 4.49 14.94Q4.13 16.02 4.13 17.31Q4.13 19.09 4.69 20.41Q5.06 21.26 5.68 21.87Q6.01 22.2 6.41 22.45Q7.57 23.18 9.32 23.18Q10.25 23.18 10.96 23.05Q11.67 22.93 12.36 22.66L12.36 21.06Q11.63 21.3 10.94 21.44Q10.25 21.59 9.53 21.59Q8.35 21.59 7.59 21.07Q7.43 20.97 7.29 20.85Q6.75 20.37 6.45 19.6Q6.07 18.65 6.07 17.32Q6.07 16.33 6.31 15.53Q6.54 14.74 6.99 14.18Q7.22 13.89 7.52 13.66Q7.77 13.47 8.08 13.33ZM22 20.59Q22.28 19.76 22.28 18.68Q22.28 17.26 21.77 16.26Q21.41 15.55 20.85 15.09Q20.61 14.89 20.34 14.73Q20.29 14.71 20.25 14.68Q19.37 14.21 18.23 14.21Q16.96 14.21 16.03 14.73Q15.7 14.92 15.43 15.17Q14.93 15.61 14.62 16.25Q14.12 17.25 14.12 18.68Q14.12 19.76 14.42 20.59Q14.71 21.43 15.26 22Q15.49 22.25 15.76 22.44Q16.12 22.71 16.54 22.88Q17.28 23.18 18.17 23.18Q19.13 23.18 19.89 22.88Q20.4 22.67 20.82 22.34Q21.01 22.19 21.18 22Q21.72 21.43 22 20.59ZM28.8 14.46Q28.03 14.21 27.08 14.21Q26.07 14.21 25.26 14.38Q24.45 14.55 23.74 14.84L24.32 16.19Q24.96 15.92 25.6 15.78Q25.93 15.7 26.26 15.67Q26.58 15.63 26.89 15.63Q27.85 15.63 28.31 15.9Q28.54 16.03 28.65 16.23Q28.77 16.43 28.77 16.69Q28.77 16.96 28.65 17.16Q28.49 17.43 28.12 17.58Q27.46 17.84 26.32 17.84L25.41 17.84L25.41 19.19L26.44 19.19Q27.28 19.19 27.82 19.32Q28.37 19.46 28.64 19.74Q28.74 19.84 28.8 19.95Q28.92 20.17 28.92 20.45Q28.92 20.77 28.78 21Q28.71 21.11 28.61 21.2Q28.3 21.48 27.77 21.6Q27.25 21.73 26.6 21.73Q25.72 21.73 24.96 21.52Q24.19 21.31 23.65 21.05L23.65 22.63Q24 22.8 24.48 22.93Q24.96 23.05 25.54 23.11Q26.12 23.18 26.77 23.18Q28.12 23.18 29 22.83Q29.87 22.48 30.3 21.88Q30.52 21.58 30.62 21.24Q30.72 20.91 30.72 20.56Q30.72 19.92 30.46 19.51Q30.36 19.36 30.24 19.23Q30.04 19.01 29.76 18.85Q29.32 18.61 28.78 18.48L28.78 18.41Q29.55 18.2 30 17.74Q30.08 17.65 30.15 17.56Q30.45 17.13 30.45 16.49Q30.45 15.94 30.21 15.52Q30.12 15.36 30 15.23Q29.56 14.72 28.8 14.46ZM48.49 14.94Q47.65 14.21 46.01 14.21Q45.14 14.21 44.33 14.42Q43.52 14.63 42.89 14.97L43.48 16.27Q43.85 16.09 44.24 15.95Q44.45 15.87 44.67 15.8Q44.86 15.75 45.05 15.71Q45.48 15.62 45.92 15.62Q46.67 15.62 47.09 15.99Q47.09 15.99 47.1 16Q47.52 16.38 47.52 17.28L47.52 17.73L46.02 17.79Q44 17.86 43.01 18.53Q42.63 18.79 42.39 19.14Q42.01 19.71 42.01 20.54Q42.01 21.44 42.36 22.02Q42.55 22.34 42.82 22.57Q43.05 22.76 43.32 22.89Q43.93 23.18 44.71 23.18Q45.44 23.18 45.95 23.03Q46.46 22.87 46.85 22.57Q47.25 22.27 47.61 21.8L47.67 21.8L48.03 23.02L49.33 23.02L49.33 17.2Q49.33 15.79 48.63 15.07Q48.56 15 48.49 14.94ZM78.54 14.69Q77.71 14.21 76.56 14.21Q75.43 14.21 74.57 14.69Q74.52 14.72 74.48 14.74Q74.26 14.87 74.06 15.03Q73.47 15.52 73.1 16.29Q72.6 17.3 72.6 18.76Q72.6 20.22 73.15 21.2Q73.48 21.8 73.96 22.21Q74.27 22.49 74.66 22.68Q75.62 23.18 76.89 23.18Q77.83 23.18 78.5 23.04Q79.17 22.9 79.82 22.59L79.82 21.1Q79.12 21.41 78.46 21.57Q77.8 21.73 76.97 21.73Q76.01 21.73 75.4 21.27Q75.27 21.17 75.16 21.05L75.16 21.05Q74.52 20.37 74.49 19.12L80.26 19.12L80.26 18.13Q80.26 16.91 79.82 16.04Q79.56 15.53 79.17 15.15Q78.89 14.89 78.54 14.69ZM117.67 14.58Q116.99 14.21 116.11 14.21Q115.45 14.21 114.95 14.39Q114.46 14.58 114.11 14.89Q113.76 15.2 113.52 15.57L113.43 15.57L113.18 14.37L111.68 14.37L111.68 26.86L113.52 26.86L113.52 23.34Q113.52 23.02 113.48 22.64Q113.45 22.27 113.41 21.95L113.52 21.95Q113.75 22.28 114.1 22.56Q114.44 22.84 114.93 23.01Q115.41 23.18 116.07 23.18Q116.89 23.18 117.56 22.85Q117.72 22.77 117.87 22.67Q117.91 22.65 117.94 22.62Q118.67 22.11 119.09 21.15Q119.52 20.15 119.52 18.68Q119.52 16.46 118.59 15.34Q118.18 14.85 117.67 14.58ZM129.01 20.59Q129.29 19.76 129.29 18.68Q129.29 17.26 128.78 16.26Q128.41 15.55 127.86 15.09Q127.62 14.89 127.35 14.73Q127.3 14.71 127.26 14.68Q126.38 14.21 125.24 14.21Q123.96 14.21 123.04 14.73Q122.71 14.92 122.44 15.17Q121.94 15.61 121.62 16.25Q121.13 17.25 121.13 18.68Q121.13 19.76 121.43 20.59Q121.72 21.43 122.27 22Q122.5 22.25 122.76 22.44Q123.12 22.71 123.55 22.88Q124.29 23.18 125.18 23.18Q126.14 23.18 126.89 22.88Q127.41 22.67 127.82 22.34Q128.02 22.19 128.19 22Q128.73 21.43 129.01 20.59ZM180.09 14.69Q179.26 14.21 178.1 14.21Q176.97 14.21 176.11 14.69Q176.07 14.72 176.03 14.74Q175.81 14.87 175.61 15.03Q175.01 15.52 174.64 16.29Q174.15 17.3 174.15 18.76Q174.15 20.22 174.69 21.2Q175.02 21.8 175.5 22.21Q175.82 22.49 176.2 22.68Q177.17 23.18 178.44 23.18Q179.38 23.18 180.05 23.04Q180.72 22.9 181.37 22.59L181.37 21.1Q180.67 21.41 180.01 21.57Q179.35 21.73 178.52 21.73Q177.56 21.73 176.95 21.27Q176.82 21.17 176.71 21.05L176.71 21.05Q176.07 20.37 176.03 19.12L181.81 19.12L181.81 18.13Q181.81 16.91 181.36 16.04Q181.1 15.53 180.71 15.15Q180.43 14.89 180.09 14.69ZM210.52 14.69Q209.69 14.21 208.53 14.21Q207.4 14.21 206.54 14.69Q206.5 14.72 206.46 14.74Q206.24 14.87 206.04 15.03Q205.44 15.52 205.07 16.29Q204.58 17.3 204.58 18.76Q204.58 20.22 205.12 21.2Q205.45 21.8 205.93 22.21Q206.25 22.49 206.63 22.68Q207.6 23.18 208.87 23.18Q209.81 23.18 210.48 23.04Q211.15 22.9 211.8 22.59L211.8 21.1Q211.1 21.41 210.44 21.57Q209.78 21.73 208.95 21.73Q207.99 21.73 207.38 21.27Q207.25 21.17 207.14 21.05L207.14 21.05Q206.5 20.37 206.46 19.12L212.24 19.12L212.24 18.13Q212.24 16.91 211.79 16.04Q211.53 15.53 211.14 15.15Q210.86 14.89 210.52 14.69ZM39.77 21.6L39.77 14.37L34.46 14.37Q34.41 15.33 34.27 16.28Q34.22 16.64 34.15 17Q33.9 18.3 33.46 19.48Q33.02 20.65 32.36 21.6L31.66 21.6L31.66 26.07L33.35 26.07L33.35 23.02L39.32 23.02L39.32 26.07L41.02 26.07L41.02 21.6L39.77 21.6ZM53.75 17.85L53.75 14.37L51.9 14.37L51.9 23.02L53.75 23.02L53.75 19.29L57.79 19.29L57.79 23.02L59.64 23.02L59.64 14.37L57.79 14.37L57.79 17.85L53.75 17.85ZM64.03 18.79L64.03 14.37L62.26 14.37L62.26 23.02L64.49 23.02L68.82 16.34Q68.82 16.56 68.79 16.98Q68.76 17.41 68.74 17.86Q68.72 18.31 68.72 18.66L68.72 23.02L70.48 23.02L70.48 14.37L68.25 14.37L63.89 21.06Q63.91 20.92 63.93 20.63Q63.96 20.34 63.98 20Q64 19.65 64.01 19.32Q64.03 19 64.03 18.79ZM88.25 18.79L88.25 14.37L86.49 14.37L86.49 23.02L88.71 23.02L93.05 16.34Q93.04 16.56 93.01 16.98Q92.99 17.41 92.97 17.86Q92.95 18.31 92.95 18.66L92.95 23.02L94.71 23.02L94.71 14.37L92.47 14.37L88.12 21.06Q88.14 20.92 88.16 20.63Q88.18 20.34 88.21 20Q88.23 19.65 88.24 19.32Q88.25 19 88.25 18.79ZM109.05 23.02L109.05 14.37L101.5 14.37L101.5 23.02L103.34 23.02L103.34 15.83L107.2 15.83L107.2 23.02L109.05 23.02ZM138.46 21.6L138.46 14.37L133.15 14.37Q133.11 15.33 132.97 16.28Q132.91 16.64 132.84 17Q132.6 18.3 132.16 19.48Q131.71 20.65 131.06 21.6L130.35 21.6L130.35 26.07L132.05 26.07L132.05 23.02L138.02 23.02L138.02 26.07L139.71 26.07L139.71 21.6L138.46 21.6ZM148.35 17.54Q148.59 17.14 148.59 16.59Q148.59 15.83 148.22 15.36Q148.19 15.32 148.15 15.28Q147.71 14.8 146.95 14.59Q146.19 14.37 145.22 14.37L141.32 14.37L141.32 23.02L145.24 23.02Q146.53 23.02 147.33 22.69Q148.13 22.36 148.5 21.78Q148.59 21.64 148.66 21.49Q148.87 21.03 148.87 20.47Q148.87 19.85 148.58 19.42Q148.47 19.24 148.3 19.1Q148.23 19.04 148.15 18.98Q147.62 18.6 146.88 18.5L146.88 18.44Q147.67 18.29 148.13 17.82Q148.26 17.69 148.35 17.54ZM152.71 18.79L152.71 14.37L150.94 14.37L150.94 23.02L153.17 23.02L157.5 16.34Q157.5 16.56 157.47 16.98Q157.44 17.41 157.42 17.86Q157.4 18.31 157.4 18.66L157.4 23.02L159.16 23.02L159.16 14.37L156.92 14.37L152.57 21.06Q152.59 20.92 152.61 20.63Q152.64 20.34 152.66 20Q152.68 19.65 152.69 19.32Q152.71 19 152.71 18.79ZM169.62 18.55L173.01 14.37L171.07 14.37L167.76 18.57L167.76 14.37L166.05 14.37L166.05 18.57L162.75 14.37L160.8 14.37L164.19 18.55L160.5 23.02L162.51 23.02L166.05 18.63L166.05 23.02L167.76 23.02L167.76 18.63L171.3 23.02L173.32 23.02L169.62 18.55ZM185.72 17.85L185.72 14.37L183.88 14.37L183.88 23.02L185.72 23.02L185.72 19.29L189.77 19.29L189.77 23.02L191.61 23.02L191.61 14.37L189.77 14.37L189.77 17.85L185.72 17.85ZM196 18.79L196 14.37L194.24 14.37L194.24 23.02L196.46 23.02L200.8 16.34Q200.79 16.56 200.77 16.98Q200.74 17.41 200.72 17.86Q200.7 18.31 200.7 18.66L200.7 23.02L202.46 23.02L202.46 14.37L200.22 14.37L195.87 21.06Q195.89 20.92 195.91 20.63Q195.93 20.34 195.96 20Q195.98 19.65 195.99 19.32Q196 19 196 18.79ZM75.54 15.85Q75.97 15.59 76.56 15.59Q77.21 15.59 77.62 15.87Q77.74 15.96 77.85 16.05Q78.1 16.3 78.25 16.66Q78.46 17.16 78.46 17.8L74.53 17.8Q74.62 16.72 75.16 16.16Q75.33 15.97 75.54 15.85ZM177.09 15.85Q177.52 15.59 178.1 15.59Q178.75 15.59 179.17 15.87Q179.29 15.96 179.39 16.05Q179.65 16.3 179.8 16.66Q180 17.16 180.01 17.8L176.07 17.8Q176.17 16.72 176.7 16.16Q176.88 15.97 177.09 15.85ZM207.52 15.85Q207.95 15.59 208.53 15.59Q209.18 15.59 209.6 15.87Q209.72 15.96 209.82 16.05Q210.08 16.3 210.23 16.66Q210.43 17.16 210.44 17.8L206.5 17.8Q206.6 16.72 207.13 16.16Q207.31 15.97 207.52 15.85ZM114.41 16.01Q114.86 15.71 115.62 15.71Q116.25 15.71 116.68 16Q116.95 16.19 117.14 16.48Q117.64 17.26 117.64 18.66Q117.64 19.58 117.42 20.26Q117.2 20.94 116.76 21.3Q116.68 21.37 116.59 21.42Q116.2 21.67 115.64 21.67Q114.85 21.67 114.38 21.32Q114.35 21.3 114.32 21.27Q113.9 20.93 113.72 20.31Q113.52 19.64 113.52 18.68L113.52 18.42Q113.53 17.52 113.74 16.91Q113.92 16.41 114.27 16.11Q114.33 16.06 114.41 16.01ZM16.24 20.3Q16.01 19.62 16.01 18.68Q16.01 17.25 16.53 16.48Q16.68 16.28 16.86 16.12Q17.37 15.72 18.2 15.72Q18.97 15.72 19.46 16.07Q19.5 16.1 19.55 16.14Q19.96 16.48 20.17 17.07Q20.39 17.73 20.39 18.68Q20.39 19.62 20.17 20.3Q19.96 20.92 19.53 21.27Q19.49 21.3 19.46 21.32Q18.97 21.68 18.21 21.68Q17.44 21.68 16.96 21.32Q16.93 21.3 16.9 21.28Q16.46 20.93 16.24 20.3ZM123.25 20.3Q123.02 19.62 123.02 18.68Q123.02 17.25 123.54 16.48Q123.68 16.28 123.87 16.12Q124.38 15.72 125.21 15.72Q125.98 15.72 126.46 16.07Q126.51 16.1 126.56 16.14Q126.97 16.48 127.18 17.07Q127.4 17.73 127.4 18.68Q127.4 19.62 127.18 20.3Q126.97 20.92 126.53 21.27Q126.5 21.3 126.46 21.32Q125.98 21.68 125.21 21.68Q124.45 21.68 123.96 21.32Q123.93 21.3 123.9 21.28Q123.47 20.93 123.25 20.3ZM146.58 16.23Q146.72 16.44 146.72 16.76Q146.72 17.08 146.57 17.3Q146.46 17.48 146.26 17.59Q145.79 17.85 144.89 17.85L143.16 17.85L143.16 15.76L145.14 15.76Q145.96 15.76 146.34 16Q146.49 16.1 146.58 16.23ZM36.03 15.78L37.95 15.78L37.95 21.6L34.28 21.6Q34.78 20.82 35.13 19.87Q35.49 18.92 35.71 17.88Q35.94 16.84 36.03 15.78ZM134.73 15.78L136.64 15.78L136.64 21.6L132.98 21.6Q133.47 20.82 133.83 19.87Q134.18 18.92 134.41 17.88Q134.64 16.84 134.73 15.78ZM46.39 18.93L47.51 18.89L47.51 19.64Q47.51 20.51 47.09 21.03Q46.99 21.14 46.88 21.24Q46.74 21.36 46.58 21.46Q46.04 21.78 45.3 21.78Q44.67 21.78 44.29 21.49Q44.23 21.44 44.17 21.38Q43.91 21.09 43.91 20.55Q43.91 20.14 44.09 19.82Q44.22 19.58 44.46 19.4Q45.02 18.98 46.39 18.93ZM146.76 19.74Q146.96 20 146.96 20.41Q146.96 20.85 146.74 21.13Q146.63 21.28 146.46 21.38Q145.96 21.67 145.08 21.67L143.16 21.67L143.16 19.2L145.04 19.2Q145.98 19.2 146.47 19.48Q146.65 19.59 146.76 19.74Z" fill="#1F1E1E" fill-opacity="1.000000" fill-rule="evenodd"/>
</svg>
